# xmcd
#
# Track frame offsets:
#	150
#	12682
#	44313
#	63551
#	90637
#	114289
#	136147
#	151180
#	173523
#	193357
#	208858
#	223630
#	250928
#	265403
#	286616
#	303302
#
# Disc length: 4259 seconds
#
# Revision: 3
# Processed by: cddbd v1.5.2PL0 Copyright (c) Steve Scherf et al.
# Submitted via: audiograbber 1.83.01
#
DISCID=e410a110
DTITLE=Craig Nylon - The Music of Bob Dylan
DYEAR=2003
DGENRE=Folk
TTITLE0=Blowin In The Wind
TTITLE1=Knockin' On Heaven's Door
TTITLE2=The Time Are-A Changing
TTITLE3=Like A Rolling Stone
TTITLE4=Mr. TambourineMan
TTITLE5=Just Like A Woman
TTITLE6=I Shall Be Released
TTITLE7=Hurricane
TTITLE8=Rainy Day Woman
TTITLE9=All Along The Watchtower
TTITLE10=Lay Lady Lay
TTITLE11=Shelter From The Storm
TTITLE12=I Want You
TTITLE13=Stuck Inside Of Mobile With The Memphis Blues Again
TTITLE14=Don't Think Twice
TTITLE15=Highway 6 I Revisited
EXTD=
EXTT0=
EXTT1=
EXTT2=
EXTT3=
EXTT4=
EXTT5=
EXTT6=
EXTT7=
EXTT8=
EXTT9=
EXTT10=
EXTT11=
EXTT12=
EXTT13=
EXTT14=
EXTT15=
PLAYORDER=
